<?xml version="1.0" encoding="iso-8859-1"?>
<!-- Uploaded to: SVG Repo, www.svgrepo.com, Generator: SVG Repo Mixer Tools -->
<!DOCTYPE svg PUBLIC "-//W3C//DTD SVG 1.1//EN" "http://www.w3.org/Graphics/SVG/1.1/DTD/svg11.dtd">
<svg fill="#000000" version="1.1" id="Capa_1" xmlns="http://www.w3.org/2000/svg" xmlns:xlink="http://www.w3.org/1999/xlink" 
	 width="800px" height="800px" viewBox="0 0 525.065 525.065"
	 xml:space="preserve">
<g>
	<path d="M374.753,235.69c0.29,0.646,0.206,1.731-0.153,2.348c-1.499,2.543-3.108,5.017-4.808,7.427
		c-0.415,0.586-1.312,0.836-2.356,1.457c-0.514-8.884-5.638-14.302-12.835-14.366c-7.472-0.072-12.643,5.249-13.245,14.31
		c-0.989-0.579-1.932-0.833-2.366-1.44c-1.666-2.34-3.253-4.755-4.672-7.255c-0.41-0.721-0.509-1.993-0.158-2.723
		c6.029-12.559,22.621-16.444,33.762-8.018C370.865,229.66,373.246,232.332,374.753,235.69z M265.534,283.549
		c-2.539-1.442-5.127-1.261-7.47,0.424c-1.974,1.419-3.22,3.314-2.9,5.938c4.688,0,9.231,0,14.081,0
		C269.277,286.946,267.929,284.906,265.534,283.549z M274.896,271.232c-11.164-7.767-27.239-3.608-33.029,8.624
		c-0.329,0.696-0.285,1.886,0.1,2.544c1.478,2.553,3.099,5.026,4.8,7.435c0.416,0.583,1.323,0.816,2.436,1.466
		c-0.338-9.755,7.188-14.426,12.765-14.422c7.472,0.015,12.666,5.325,13.222,14.356c0.994-0.598,1.941-0.854,2.38-1.475
		c1.662-2.343,3.253-4.751,4.672-7.248c0.411-0.724,0.485-1.975,0.141-2.726C280.749,276.221,278.112,273.473,274.896,271.232z
		 M259.794,249.15c-13.385,0.698-23.879,7.068-31.23,17.807c2.992,2.959,5.743,5.685,8.497,8.415
		c5.736-9.031,13.964-14.438,25.214-14.405c11.213,0.04,19.371,5.561,25.102,14.568c2.856-2.833,5.577-5.525,8.513-8.438
		C287.073,254.701,275.027,248.352,259.794,249.15z M275.261,202.567c0.979-0.632,1.895-0.929,2.338-1.563
		c1.619-2.289,3.006-4.741,4.644-7.015c0.775-1.08,0.934-2.023,0.141-2.982c-2.18-2.663-4.084-5.699-6.721-7.796
		c-10.973-8.697-27.524-4.758-33.785,7.778c-0.553,1.108-0.586,1.93,0.182,3.005c1.636,2.277,3.027,4.73,4.646,7.02
		c0.443,0.625,1.363,0.922,2.34,1.549c0.901-9.325,5.659-14.347,13-14.377C269.534,188.158,274.313,193.124,275.261,202.567z
		 M255.141,201.2c4.765,0,9.372,0,13.974,0c0.256-3.935-2.786-7.155-6.709-7.236C258.156,193.882,255.001,196.941,255.141,201.2z
		 M169.88,216.623c11.25-0.014,19.443,5.477,25.217,14.533c2.828-2.786,5.605-5.514,8.52-8.391
		c-8.067-11.547-19.235-17.947-33.496-18.018c-14.442-0.077-25.77,6.317-33.927,17.973c2.919,2.873,5.701,5.605,8.541,8.401
		C150.435,222.09,158.64,216.632,169.88,216.623z M354.433,216.623c11.248,0.004,19.425,5.505,25.175,14.529
		c2.828-2.805,5.596-5.554,8.503-8.44c-8.484-12.009-20.189-18.396-35.078-17.945c-13.8,0.411-24.59,6.805-32.314,17.945
		c2.926,2.905,5.685,5.654,8.494,8.454C334.98,222.062,343.186,216.613,354.433,216.623z M358.251,239.461
		c-2.418-1.596-5.013-1.652-7.491-0.128c-2.254,1.381-3.519,3.398-3.449,6.233c4.896,0,9.433,0,14.16,0
		C361.592,242.84,360.379,240.861,358.251,239.461z M212.115,255.982c3.689,2.361,7.225,4.627,10.762,6.882
		c18.638-27.366,59.59-27.389,78.523,0.025c3.58-2.296,7.159-4.592,10.739-6.884C289.178,221.014,236.325,219.892,212.115,255.982z
		 M183.405,227.567c-10.954-8.683-27.552-4.723-33.787,7.79c-0.556,1.108-0.574,1.93,0.196,2.996c1.629,2.28,3.02,4.728,4.634,7.012
		c0.446,0.625,1.354,0.922,2.334,1.547c0.936-9.505,6.002-14.552,13.686-14.356c5.491,0.138,12.69,4.838,12.86,14.19
		c0.688-0.464,1.583-0.774,2.033-1.412c1.615-2.29,3.001-4.735,4.639-7.01c0.784-1.085,0.905-2.032,0.121-2.978
		C187.942,232.689,186.044,229.655,183.405,227.567z M169.588,238.29c-3.885,0.163-6.928,3.481-6.608,7.231c4.76,0,9.348,0,13.931,0
		C176.878,241.262,173.628,238.119,169.588,238.29z M182.689,404.318c-11.14-7.794-27.202-3.683-33.043,8.55
		c-0.343,0.737-0.233,2.003,0.182,2.726c1.419,2.497,3.005,4.91,4.674,7.253c0.43,0.606,1.382,0.845,2.371,1.405
		c0.506-8.882,5.678-14.291,13.023-14.291c7.339-0.005,12.538,5.423,13.03,14.389c1.062-0.64,1.956-0.896,2.371-1.489
		c1.696-2.412,3.312-4.882,4.807-7.425c0.364-0.616,0.441-1.703,0.145-2.353C188.604,409.429,185.958,406.605,182.689,404.318z
		 M173.5,416.719c-2.576-1.549-5.239-1.433-7.67,0.304c-1.983,1.414-3.218,3.313-2.926,5.945c4.688,0,9.229,0,14.099,0
		C177.035,420.116,175.774,418.077,173.5,416.719z M352.058,382.201c-13.386,0.7-23.887,7.07-31.219,17.777
		c2.974,2.986,5.708,5.73,8.452,8.484c5.755-9.059,13.987-14.478,25.23-14.436c11.22,0.033,19.378,5.545,25.108,14.562
		c2.856-2.819,5.578-5.517,8.518-8.434C379.332,387.76,367.286,381.408,352.058,382.201z M167.554,382.201
		c-13.385,0.7-23.886,7.07-31.318,17.926c2.921,2.922,5.635,5.643,8.464,8.476c5.85-9.203,14.071-14.622,25.326-14.58
		c11.215,0.033,19.373,5.55,24.971,14.347c2.882-2.8,5.661-5.507,8.569-8.335C194.823,387.76,182.78,381.403,167.554,382.201z
		 M367.688,404.673c-11.126-8.195-27.308-4.331-33.538,8.009c-0.611,1.214-0.555,2.086,0.248,3.192
		c1.591,2.212,2.939,4.602,4.513,6.833c0.452,0.639,1.325,0.984,2.017,1.461c0.187-9.605,7.756-14.239,13.291-14.23
		c7.468,0.019,12.63,5.293,13.218,14.36c0.999-0.597,1.941-0.863,2.38-1.483c1.662-2.344,3.253-4.752,4.672-7.248
		c0.415-0.724,0.48-1.979,0.135-2.726C373.087,409.494,370.665,406.857,367.688,404.673z M357.509,416.448
		c-2.688-1.362-5.325-0.984-7.622,0.91c-1.735,1.433-2.8,3.267-2.52,5.609c4.816,0,9.357,0,14.141,0
		C361.489,419.827,360.052,417.746,357.509,416.448z M91.156,360.616c-10.975-8.7-27.524-4.761-33.785,7.775
		c-0.553,1.11-0.588,1.932,0.182,3.005c1.641,2.278,3.027,4.732,4.646,7.02c0.448,0.625,1.362,0.924,2.345,1.555
		c0.894-9.32,5.654-14.347,12.996-14.375c7.493-0.028,12.268,4.929,13.22,14.379c0.98-0.635,1.893-0.934,2.336-1.563
		c1.619-2.286,3.005-4.746,4.646-7.019c0.774-1.083,0.931-2.021,0.138-2.982C95.694,365.759,93.797,362.716,91.156,360.616z
		 M80.79,372.083c-2.576-1.283-5.201-1.078-7.477,0.732c-1.811,1.447-3.125,3.258-2.623,5.802c4.702,0,9.262,0,14.094,0
		C84.764,375.471,83.336,373.357,80.79,372.083z M460.371,360.784c-10.944-8.887-27.639-5.036-33.972,7.579
		c-0.546,1.092-0.653,1.913,0.14,3.01c1.643,2.269,3.024,4.724,4.644,7.011c0.453,0.635,1.35,0.956,2.04,1.419
		c0.845-8.662,5.923-14.104,13.059-14.197c7.7-0.104,12.713,4.998,13.432,14.351c0.989-0.606,1.923-0.887,2.366-1.507
		c1.671-2.339,3.248-4.761,4.69-7.253c0.392-0.672,0.579-1.988,0.187-2.511C464.897,365.937,462.989,362.902,460.371,360.784z
		 M269.249,112.505c0.205-2.901-1.134-4.903-3.388-6.275c-2.539-1.547-5.253-1.505-7.701,0.173c-2.065,1.414-3.46,3.33-3.02,6.103
		C259.829,112.505,264.372,112.505,269.249,112.505z M446.906,371.369c-4.247-0.089-7.393,2.978-7.262,7.238
		c4.765,0,9.371,0,13.969,0C453.87,374.668,450.831,371.448,446.906,371.369z M262.15,349.667
		c11.257-0.01,19.425,5.503,25.212,14.557c2.814-2.81,5.572-5.567,8.476-8.471c-8.168-11.626-19.48-18.02-33.935-17.95
		c-14.258,0.08-25.426,6.469-33.475,17.992c2.945,2.875,5.727,5.596,8.564,8.368C242.71,355.137,250.905,349.667,262.15,349.667z
		 M274.976,359.995c-11.149-7.841-27.076-3.771-33.127,8.438c-0.562,1.139-0.529,1.941,0.231,3.005
		c1.633,2.282,3.02,4.732,4.644,7.02c0.441,0.626,1.377,0.892,2.371,1.498c0.644-8.862,5.414-14.095,12.321-14.355
		c7.866-0.294,13.835,5.582,13.803,14.454c1.06-0.71,1.95-1.036,2.403-1.671c1.615-2.292,3.001-4.751,4.644-7.02
		c0.794-1.097,0.7-1.928,0.131-3.006C280.613,364.942,278.112,362.198,274.976,359.995z M265.497,372.199
		c-2.637-1.428-5.307-1.231-7.666,0.616c-1.827,1.429-3.146,3.239-2.644,5.797c4.697,0,9.255,0,14.085,0
		C269.296,375.574,267.929,373.521,265.497,372.199z M204.688,252.379c14.008-19.81,32.87-30.859,57.372-30.887
		c24.594-0.028,43.527,11.035,57.585,30.955c2.012-0.729,4.004-1.496,6.025-2.175c2.095-0.708,4.205-1.354,6.827-2.185
		c-17.086-26.03-40.607-40.207-71.697-39.747c-29.977,0.438-52.577,14.617-68.931,39.675
		C196.382,249.546,200.538,250.965,204.688,252.379z M119.945,389.085c3.526,2.264,7.063,4.522,10.771,6.902
		c9.708-13.45,22.825-20.581,39.269-20.562c16.43,0.028,29.517,7.215,39.107,20.562c3.699-2.38,7.269-4.676,10.839-6.977
		C195.125,352.327,142.071,354.717,119.945,389.085z M349.677,362.623c-19.289,1.33-34.224,10.641-45.415,26.346
		c3.794,2.427,7.327,4.69,10.86,6.949c18.678-27.415,59.636-27.34,78.528,0.023c3.579-2.287,7.159-4.588,10.935-7.01
		C390.92,370.249,372.761,361.026,349.677,362.623z M287.428,186.721c2.721-2.69,5.488-5.43,8.424-8.331
		c-7.817-11.231-18.659-17.625-32.562-17.971c-14.815-0.371-26.429,6.009-34.931,18.053c2.934,2.823,5.743,5.523,8.592,8.268
		C247.995,167.847,275.479,166.734,287.428,186.721z M485.899,262.89c3.58-2.296,7.16-4.588,10.939-7.012
		c-13.669-18.685-31.824-27.905-54.907-26.313c-19.294,1.333-34.229,10.648-45.421,26.353c3.795,2.427,7.332,4.684,10.865,6.947
		C426.044,235.457,467.008,235.524,485.899,262.89z M27.656,256.006c3.58,2.296,7.159,4.587,10.734,6.884
		c18.881-27.356,59.825-27.452,78.533-0.021c3.584-2.294,7.168-4.597,10.753-6.896C103.433,219.857,50.566,221.052,27.656,256.006z
		 M449.8,283.413c-2.595-1.344-5.181-1.046-7.463,0.724c-1.829,1.433-3.023,3.285-2.679,5.773c4.742,0,9.273,0,14.085,0
		C453.743,286.811,452.325,284.729,449.8,283.413z M445.521,249.11c-13.895,0.35-24.759,6.739-32.562,17.978
		c2.936,2.879,5.717,5.601,8.555,8.373c5.698-9.055,13.917-14.489,25.165-14.489c11.247-0.005,19.434,5.495,25.188,14.54
		c2.832-2.81,5.6-5.554,8.503-8.443C471.94,255.133,460.319,248.739,445.521,249.11z M81.267,283.628
		c-2.481-1.493-5.122-1.438-7.517,0.168c-2.093,1.4-3.438,3.342-3.097,6.114c4.674,0,9.227,0,14.078,0
		C84.86,287.007,83.523,284.99,81.267,283.628z M77.185,249.105c-14.174,0.138-25.256,6.539-33.249,17.978
		c2.94,2.884,5.727,5.601,8.555,8.368c5.722-9.017,13.908-14.484,25.158-14.489c11.255-0.004,19.427,5.51,25.209,14.563
		c2.814-2.818,5.573-5.567,8.469-8.461C103.127,255.343,91.723,248.963,77.185,249.105z M482.404,397.062
		c-27.606,34.914-64.999,52.621-111.123,52.621c0,0,0,0-0.005,0c-3.641,0-7.384-0.107-11.126-0.336
		c-20.853-1.232-40.534-8-60.168-20.694c-25.356-16.414-50.641-16.414-74.335,0.089c-20.029,13.932-44.591,21.291-71.035,21.291
		c-50.906,0-98.167-26.396-123.33-68.886C15.02,353.676,5.366,322.421,1.776,285.593c-2.298-23.487-2.366-44.066-0.205-62.91
		l0.051-0.789c0.105-1.897,0.383-6.935,5.745-8.426c0.698-0.196,1.428-0.301,2.142-0.301c4.019,0,6.158,2.973,7.312,4.569
		l0.396,0.542c7.322,9.554,16.512,11.962,28.808,7.741c9.976-3.421,19.648-8.343,29.006-13.103l3.097-1.573
		c24.357-12.34,45.835-19.235,67.596-21.711c10.543-1.204,21.592-1.139,33.74,0.233c-4.991-5.18-11.145-10.237-13.182-10.925
		c-6.499-1.041-10.958-5.538-11.684-11.976c-0.87-7.666,3.914-15.901,10.886-18.738c15.135-6.174,29.431-8.387,42.118-6.471
		c2.6,0.392,5.746,0.793,8.308,1.099c0.101-1.3,0.196-2.824,0.275-4.492c1.473-30.8,28.628-53.833,36.919-60.154
		c2.95-2.243,6.224-3.246,9.406-3.169c3.234-0.073,6.506,0.959,9.396,3.169c22.742,17.343,36.281,41.18,37.168,65.416
		c0.252-0.073,0.504-0.145,0.775-0.215l0.942-0.259c3.117-0.856,6.665-1.815,10.263-1.85l1.157-0.005
		c14.067,0,25.576,2.138,37.318,6.931c6.968,2.837,11.752,11.068,10.884,18.738c-0.729,6.438-5.186,10.935-11.92,12.034
		c-1.844,0.642-7.826,5.577-12.77,10.69c30.994-3.37,61.447,2.49,93.776,17.908c3.71,1.769,7.388,3.607,11.061,5.454
		c9.278,4.65,18.874,9.453,28.777,12.855c12.354,4.244,21.403,1.906,28.796-7.652l0.388-0.525c1.147-1.592,3.295-4.551,7.374-4.551
		c0.63,0,1.273,0.077,1.908,0.231c5.479,1.299,5.797,6.604,5.904,8.342C527.601,277.906,525.705,342.316,482.404,397.062z
		 M505.385,233.35c3.538,3.727,6.856,7.871,9.974,12.381c-0.149-5.351-0.406-10.643-0.714-15.87
		c-0.294,0.424-0.616,0.817-0.896,1.26c-0.774-0.768-1.563-1.547-2.343-2.317C509.496,230.596,507.489,232.11,505.385,233.35z
		 M236.421,109.562c1.291,1.734,2.546,3.517,3.771,5.376c-2.973,1.018-5.799,1.979-8.594,2.938c-1.456,2.929-2.714,5.932-3.675,9
		c8.86-4.072,18.619-6.566,29.458-7.126c14.533-0.751,27.489,1.71,39.008,7.054c-0.967-3.006-2.185-5.965-3.58-8.889
		c-2.805-0.952-5.628-1.909-8.629-2.931c1.236-1.935,2.538-3.776,3.873-5.568c-5.54-8.646-12.867-16.694-21.939-23.608
		c-1.06-0.808-2.082-1.218-3.038-1.218l-0.327,0.023l-0.56-0.014c-1.242-0.235-2.227,0.406-3.289,1.213
		c-2.81,2.143-5.666,4.574-8.463,7.232c7.705-4.623,17.87-4.487,25.431,1.643c2.613,2.124,4.522,5.148,6.576,7.892
		c0.392,0.521,0.205,1.834-0.187,2.513c-1.442,2.485-3.02,4.898-4.677,7.246c-0.443,0.625-1.372,0.903-2.353,1.515
		c-0.854-9.302-5.806-14.419-13.273-14.352c-7.215,0.065-12.216,5.36-12.797,13.582c-1.225,0.842-1.892,0.324-2.585-0.842
		c-1.391-2.341-2.858-4.663-4.464-6.861c-0.833-1.144-0.784-2.019-0.182-3.197c0.023-0.049,0.054-0.086,0.077-0.126
		C240.024,104.447,238.155,106.962,236.421,109.562z M33.812,237.463c-4.947,4.2-9.516,9.115-13.616,14.907
		c-3.388-1.153-6.882-2.333-10.538-3.575c-0.023,2.471-0.042,4.947,0,7.484c8.263,2.548,16.057,6.361,23.326,11.565
		c9.178,6.562,16.713,14.678,22.444,24.586c-4.226,1.451-8.382,2.87-12.636,4.317c-1.318-1.75-2.644-3.612-4.072-5.386
		c-7.808-9.68-17.324-16.624-28.532-20.908c0.173,2.884,0.437,5.88,0.684,8.857c9.472,4.387,18.036,11.327,24.551,21.012
		c-3.685,2.361-7.218,4.625-10.753,6.889c-3.398-4.989-7.542-9.031-12.135-12.195c0.479,3.542,1.036,7.02,1.634,10.454
		c1.75,1.792,3.4,3.771,4.938,5.95c-1.094,1.088-2.13,2.119-3.174,3.16c0.621,2.889,1.244,5.782,1.956,8.602
		c12.951-14.207,29.337-23.047,49.644-25.642c2.133-0.271,4.245-0.382,6.347-0.476c0.25-0.154,0.42-0.327,0.693-0.477
		c5.449-2.921,10.686-5.446,15.805-7.672c-1.423-7.785-5.937-12.014-12.631-12.032c-7.493-0.028-12.263,4.924-13.22,14.384
		c-0.98-0.639-1.893-0.938-2.336-1.568c-1.622-2.291-3.005-4.741-4.646-7.019c-0.775-1.078-0.726-1.896-0.172-3.011
		c6.27-12.531,22.822-16.46,33.785-7.757c2.642,2.096,4.539,5.134,6.718,7.79c0.793,0.966,0.621,1.908-0.147,2.982
		c-1.024,1.428-1.96,2.902-2.9,4.377c4.051-1.633,8.027-3.066,11.917-4.266c13.483-16.678,31.013-27.134,53.286-29.542
		c34.469-3.729,60.887,10.265,80.236,39.064c-4.592,1.559-8.692,2.959-12.916,4.396c-13.936-19.77-32.852-30.872-57.426-30.882
		c-15.149-0.009-28.126,4.257-39.171,12.172c2.802-0.233,5.589-0.378,8.358-0.378c2.835,0,5.673,0.173,8.499,0.425
		c24.98-9.853,55.657-2.679,72.298,22.275c-3.584,2.297-7.169,4.593-10.753,6.889c-7.087-10.355-17.364-16.675-28.383-19.182
		c10.899,6.516,19.828,16.358,26.978,29.604c11.971-11.052,26.556-18.024,44.067-19.998c26.187-2.964,47.8,4.316,65.217,20.614
		c1.224-2.292,2.516-4.494,3.869-6.585c-0.069-0.07-0.131-0.136-0.21-0.206c0.887-1.292,1.82-2.492,2.786-3.645
		c4.485-6.128,9.651-11.359,15.635-15.896c2.147-1.624,4.378-3.07,6.642-4.419c-12.382,2.1-22.594,8.773-30.527,19.755
		c-3.599-2.296-7.169-4.578-11.005-7.023c12.144-16.765,28.203-26.131,49.022-26.481c8.551-0.145,16.303,1.293,23.368,4.089
		c2.087-0.107,4.158-0.145,6.235-0.052c0.019,0,0.033,0,0.042,0c3.748,0,7.439,0.215,11.099,0.532
		c-30.416-21.569-74.771-15.25-96.978,18.402c-4.13-1.405-8.284-2.814-12.815-4.354c14.127-22.299,33.883-36.205,60.103-39.11
		c30.373-3.365,54.521,7.11,73.133,29.37c3.837,1.097,7.701,2.381,11.612,3.869c-0.799-1.256-1.55-2.534-2.428-3.733
		c-0.83-1.139-0.793-2.017-0.191-3.197c6.381-12.578,23.089-16.377,34.01-7.468c2.604,2.129,4.489,5.172,6.548,7.916
		c0.368,0.485,0.233,1.713-0.131,2.329c-1.493,2.538-3.104,5.017-4.808,7.425c-0.415,0.598-1.302,0.85-2.37,1.503
		c-0.481-8.961-5.681-14.407-13.026-14.407c-6.711,0-11.593,4.569-12.723,11.561c4.779,1.992,9.633,4.219,14.655,6.818
		c1.144,0.598,2.175,1.223,3.094,1.881c22.636,1.148,41.173,10.632,55.978,27.396c0.751-2.889,1.451-5.772,2.086-8.667
		c-1.503-1.47-2.978-2.912-4.541-4.442c2.049-2.954,4.354-5.507,6.837-7.752c0.514-3.188,0.966-6.38,1.354-9.567
		c-5.245,3.285-9.959,7.63-13.739,13.123c-3.674-2.352-7.202-4.625-10.73-6.879c6.567-10.066,15.695-17.291,25.917-21.66
		c0.187-2.907,0.312-5.811,0.42-8.699c-2.586,0.957-5.162,2.025-7.696,3.313c-10.234,5.199-18.715,12.602-25.127,22.22
		c-0.29,0.43-0.594,0.831-0.878,1.223c-4.257-1.446-8.415-2.86-12.862-4.377c11.626-18.258,27.102-30.577,46.824-36.252
		c-0.004-2.543-0.061-5.078-0.111-7.6c-3.963,1.349-7.649,2.6-11.304,3.848c-4.107-5.832-8.709-10.781-13.717-15.002
		c-4.429,0.028-9.119-0.716-14.142-2.441c-10.496-3.61-20.386-8.56-29.943-13.35c-0.052-0.023-0.099-0.047-0.149-0.075
		c-24.297,0.151-43.04,11.173-56.957,30.863c-4.153-1.414-8.303-2.835-12.815-4.368c12.246-18.778,28.035-31.389,47.776-36.742
		c-3.486-1.426-6.94-2.714-10.384-3.899c-0.645,0.215-1.289,0.434-1.924,0.653c-0.429-0.607-0.887-1.155-1.325-1.738
		c-4.634-1.5-9.24-2.812-13.819-3.881c2.777,2.723,5.414,5.745,7.883,9.124c-3.771,2.417-7.355,4.711-10.93,7.005
		c-8.187-11.852-20.493-18.552-33.337-20.155c-6.534,0.101-13.097,0.637-19.616,1.626c-9.964,2.915-19.111,9.031-25.575,18.51
		c-3.533-2.261-7.066-4.522-10.865-6.954c8.009-11.241,17.978-19.116,30.047-23.216c2.688-3.379,6.259-7.117,9.88-10.391
		c-19.611,2.672-35.241,13.086-47.245,30.07c-4.13-1.405-8.293-2.819-12.802-4.354c15.715-24.271,37.523-38.13,66.427-39.703
		c3.5-0.191,6.921-0.054,10.305,0.21c-0.387-2.973-2.44-6.079-4.946-7.104c-0.206-0.084-0.406-0.133-0.611-0.214
		c-2.643,0-5.265,0-7.916,0c-0.107-0.99,0.057-1.844,0.331-2.637c-1.759-0.511-3.561-0.894-5.357-1.286
		c-0.527,1.568-0.896,3.312-1.041,5.248c-0.994-0.602-1.927-0.87-2.366-1.491c-1.134-1.597-2.207-3.242-3.243-4.898
		c-2.991-0.401-6.109-0.66-9.344-0.774c2.096,2.613,4.145,5.332,6.072,8.263c-4.443,1.515-8.597,2.938-12.854,4.396
		c-2.735-3.89-5.703-7.388-8.849-10.566c-2.082,0.693-3.216,1.342-3.79,1.692c-0.648,0.397-1.629,0.994-3.062,0.994h-1.782
		c3.673,3.279,7.075,7.068,10.053,11.456c-3.557,2.289-7.117,4.578-10.847,6.973c-9.572-13.32-22.649-20.521-39.07-20.561
		c-16.444-0.038-29.573,7.078-39.304,20.565c-3.685-2.366-7.22-4.632-10.748-6.891c18.663-29.358,60.872-35.661,88.264-12.932
		l-0.304-0.345c-1.488-1.783-1.144-3.722-0.976-4.653c0.149-0.842,0.43-2.411,0.327-5.367c-0.005-0.101-0.023-0.196-0.033-0.301
		c-10.622-7.099-23.004-10.961-37.346-10.961c-14.041,0-26.189,3.725-36.69,10.583c-0.238,3.202-0.481,5.253-0.497,5.367
		l-0.567,4.684l-4.688-0.511c0,0-2.303-0.254-5.281-0.618c-3.465,3.384-6.73,7.141-9.726,11.385
		c-4.205-1.435-8.312-2.835-12.795-4.359c1.979-3.078,4.107-5.911,6.291-8.655c-3.068,0.014-6.232,0.269-9.488,0.779
		c-1.094,1.778-2.184,3.561-3.393,5.267c-0.438,0.612-1.377,0.875-2.371,1.463c-0.133-1.96-0.501-3.72-1.045-5.297
		c-1.783,0.451-3.584,0.962-5.409,1.545c0.242,0.771,0.396,1.582,0.348,2.446c-2.362,0-4.793,0-7.183,0
		c-0.187,0.077-0.369,0.135-0.556,0.21c-2.518,1.029-4.578,4.149-4.954,7.131c0.567-0.038,1.113-0.119,1.692-0.143
		c32.159-1.412,56.651,12.683,74.405,39.651c-2.417,0.775-4.506,1.41-6.576,2.112c-2.093,0.711-4.159,1.496-6.275,2.275
		c-11.815-16.78-27.169-27.188-46.424-30.046c3.785,3.423,7.507,7.36,10.212,10.849c11.073,4.13,21.219,11.583,28.756,22.724
		c-3.656,2.348-7.187,4.609-10.853,6.959c-6.576-9.152-14.834-15.332-24.666-18.365c-7.435-1.066-14.407-1.659-21.004-1.769
		c-13.395,1.664-24.325,8.526-32.698,20.134c-3.624-2.317-7.197-4.606-10.776-6.896c2.107-3.284,4.511-6.261,7.134-8.947
		c-4.492,1.108-9.031,2.43-13.635,3.977c-0.329,0.45-0.684,0.861-1.003,1.314c-0.467-0.157-0.936-0.32-1.405-0.481
		c-3.32,1.165-6.671,2.427-10.078,3.827c18.862,5.391,34.466,17.849,47.065,36.599c-4.579,1.561-8.686,2.957-12.914,4.406
		c-13.658-19.39-32.149-30.366-56.017-30.808c-9.563,4.87-19.445,9.885-29.96,13.493C43.694,236.929,38.591,237.678,33.812,237.463z
		 M503.065,339.749c-11.868-16.223-27.284-26.131-46.489-28.679c-0.639,2.03-1.614,3.864-2.501,5.33
		c-0.425,0.699-0.878,1.372-1.307,2.058c16.666,1.644,32.954,10.062,43.926,26.215c-3.631,2.324-7.164,4.593-10.851,6.964
		c-9.567-13.32-22.645-20.521-39.068-20.559c-1.208-0.005-2.352,0.116-3.523,0.191c-2.59,2.949-5.315,5.666-8.172,8.153
		c3.948-1.12,8.163-1.718,12.718-1.605c13.894,0.345,24.749,6.739,32.543,17.944c-2.916,2.922-5.665,5.676-8.377,8.396
		c-11.957-20.045-39.493-18.888-50.349-0.262c-2.726-2.674-5.53-5.428-8.513-8.354c0.934-1.321,1.928-2.562,2.949-3.752
		c-4.387,2.025-9.017,3.658-13.879,4.941c8.466,6.306,16.003,14.375,22.527,24.312c-4.489,1.535-8.652,2.954-12.844,4.387
		c-8.335-11.817-18.481-20.399-30.471-25.482c-3.599,0.233-7.318,0.374-11.397,0.374c-7.556,0-15.159-0.388-22.51-0.761
		c-5.675-0.29-11.443-0.551-17.212-0.668c-13.235,4.863-24.324,13.806-33.323,26.537c-4.148-1.419-8.307-2.833-12.806-4.368
		c6.874-10.576,14.972-19.084,24.198-25.58c-0.145-0.168-0.341-0.304-0.485-0.485c-1.018-1.326-1.988-3.444-1.824-6.38
		c-1.536,0.975-3.095,1.979-4.616,2.944c-18.706-27.382-59.638-27.377-78.528,0.015c-1.309-0.841-2.621-1.681-3.93-2.516
		c0,1.997-0.448,4.004-1.757,5.791c-0.278,0.374-0.583,0.696-0.898,1.014c9.542,6.655,17.695,15.195,23.646,25.271
		c-4.264,1.447-8.363,2.848-12.597,4.285c-8.671-12.312-19.293-21.245-32.007-26.238c-0.306-0.005-0.653-0.005-0.945-0.01
		l-3.083-0.028c-1.683-0.037-3.241-0.051-4.774-0.051c-6.275,0-12.312,0.257-18.157,0.509c-5.715,0.242-11.115,0.471-16.601,0.471
		c-3.113,0-5.959-0.103-8.708-0.266c-12.048,5.05-22.208,13.712-30.635,25.604c-4.07-1.382-8.228-2.791-12.75-4.326
		c6.366-10.049,13.994-18.132,22.736-24.475c-5.276-1.433-10.261-3.327-14.998-5.68c1.368,1.559,2.658,3.184,3.771,4.957
		c-2.782,2.795-5.526,5.549-8.331,8.358c-5.825-9.115-14.006-14.608-25.261-14.594c-11.25,0.014-19.422,5.502-25.12,14.486
		c-2.852-2.768-5.647-5.488-8.583-8.34c8.321-11.831,19.786-18.197,34.42-18.011c4.478,0.057,8.673,0.859,12.596,2.18
		c-3.034-2.604-5.911-5.488-8.669-8.62c-16.431-1.592-33.54,5.092-43.875,20.208c-3.533-2.259-7.068-4.513-10.874-6.949
		c11.08-15.578,25.888-24.693,44.958-26.354c-0.651-1.018-1.305-2.021-1.937-3.075c-0.859-1.442-1.423-2.875-1.848-4.285
		c-17.735,2.324-34.63,11.439-46.318,27.387c1.701,5.12,3.57,10.123,5.628,14.99c1.692,1.032,3.365,2.092,4.999,3.263
		c9.178,6.562,16.713,14.683,22.444,24.591c-3.484,1.19-6.935,2.371-10.419,3.561c1.445,2.035,2.915,4.047,4.474,5.993
		c7.374-2.754,15.39-4.606,23.991-5.031c33.458-1.629,61.421,17.109,74.095,39.88c-4.168,1.419-8.324,2.838-12.482,4.252
		c-17.588-26.733-48.738-36.016-75.959-28.404c2.28,2.278,4.62,4.477,7.063,6.572c22.409-4.28,47.04,3.887,61.486,25.426
		c-1.675,1.083-3.376,2.17-5.068,3.248c3.493,0.845,7.033,1.535,10.608,2.101c17.028-8.611,35.131-10.87,54.199-6.87
		c2.485,0.518,4.91,1.162,7.281,1.909c3.397-1.195,6.728-2.497,9.955-4.005c-4.131-1.404-8.275-2.818-12.767-4.345
		c15.842-24.409,37.79-38.308,66.903-39.717c32.646-1.582,60.074,16.596,73.348,39.801c-3.757,1.278-7.505,2.558-11.271,3.851
		c3.285,1.554,6.575,2.936,9.88,4.144c13.156-4.069,26.892-4.644,41.173-1.647c6.894,1.452,13.357,3.804,19.434,6.926
		c3.688-0.48,7.318-1.059,10.86-1.814c-1.857-1.186-3.743-2.395-5.698-3.65c11.182-15.7,26.112-25.011,45.406-26.354
		c6.085-0.425,11.807-0.042,17.207,1.045c2.287-2.067,4.504-4.247,6.679-6.506c-5.974-1.685-12.345-2.613-19.191-2.608
		c-24.497,0.014-43.385,11.028-57.414,30.887c-4.126-1.405-8.279-2.819-12.812-4.359c15.658-24.189,37.374-38.34,66.198-39.609
		c11.952-0.519,22.78,1.236,32.655,4.872c1.526-1.946,2.917-3.92,4.336-5.885c-3.515-1.195-7.057-2.399-10.874-3.696
		c7.957-12.541,17.776-22.248,29.519-28.987C500.004,348.02,501.614,343.894,503.065,339.749z M412.165,434.416
		c11.252-3.341,21.738-8.186,31.423-14.473C432,420.64,420.673,425.433,412.165,434.416z M305.172,420.625
		c4.378,2.833,8.76,5.33,13.151,7.528c-13.861-18.771-32.37-29.276-56.254-29.258c-24.479,0.028-43.341,11.052-57.345,30.84
		c5.416-2.529,10.597-5.47,15.462-8.854c7.708-5.357,15.637-9.134,23.704-11.438c0.43-0.131,0.859-0.257,1.295-0.379
		c0.974-0.256,1.954-0.471,2.938-0.686c1.057-0.238,2.103-0.49,3.188-0.668c0.779-0.125,1.559-0.195,2.333-0.298
		c1.094-0.141,2.163-0.327,3.292-0.416c0.42-0.032,0.817-0.005,1.232-0.027c1.706-0.107,3.411-0.149,5.124-0.122
		c0.962,0.01,1.909,0.052,2.852,0.107c1.139,0.065,2.282,0.173,3.421,0.299c1.022,0.117,2.054,0.201,3.058,0.364
		C283.475,409.316,294.391,413.648,305.172,420.625z M83.021,420.215c8.618,5.311,17.84,9.684,27.534,12.97
		C102.749,425.685,93.058,421.367,83.021,420.215z M79.099,305.021c-0.838,0.448-1.33,0.929-1.473,1.442
		c-0.235,0.845,0.182,2.277,1.104,3.832c14.475,24.24,34.366,37.229,60.829,39.717c8.081,0.765,18.022,0.499,28.42,0.061
		c7.423-0.322,15.149-0.663,23.447-0.472l3.068,0.028c3.211,0.027,7.412,0.079,11.631-0.061c1.913-0.057,2.858-0.285,3.273-0.425
		c0.01-0.43-0.061-1.363-0.553-3.127c-1.013-3.575-2.266-7.794-3.881-11.883c-9.854-24.959-23.896-38.998-44.207-44.192
		c-7.099-1.815-14.381-2.739-21.636-2.739C120.815,287.193,101.741,292.864,79.099,305.021z M315.663,348.453
		c-0.145,0.527-0.135,0.812-0.126,0.896c0.033-0.126,0.551,0.084,1.555,0.084c3.024-0.121,5.722-0.168,8.414-0.168
		c7.528,0,15.117,0.388,22.454,0.761c12.139,0.616,25.229,1.092,35.693,0.224c27.55-2.314,47.903-15.004,62.235-38.783
		c1.933-3.201,1.876-4.485,1.765-4.891c-0.103-0.355-0.64-1.345-3.468-2.81c-21.921-11.341-40.758-16.396-61.097-16.396
		l-0.677-0.005c-13.101-0.621-26.243,3.659-37.528,12.2C330.948,310.118,321.927,325.192,315.663,348.453z M311.3,330.971
		c-26.649-27.61-70.87-27.521-97.593-0.695c0.046,0.116,0.1,0.224,0.147,0.336c1.113,2.838,2.016,5.605,2.833,8.274
		c23.562-27.619,67.759-27.946,91.607,0.836C309.237,336.679,310.24,333.757,311.3,330.971z M13.461,228.325
		c-0.95,0.943-1.911,1.895-2.861,2.835c-0.044-0.073-0.096-0.124-0.135-0.196c-0.366,4.45-0.607,9.015-0.726,13.686
		c2.945-4.233,6.111-8.118,9.509-11.656C17.213,231.718,15.292,230.134,13.461,228.325z"/>
</g>
</svg>